<?xml version="1.0" encoding="UTF-8"?>
<svg xmlns="http://www.w3.org/2000/svg" height="174" width="174" class="pyqrcode"><path transform="scale(6)" stroke="#000" class="pyqrline" d="M4 4.5h7m4 0h2m1 0h7m-21 1h1m5 0h1m1 0h1m1 0h1m3 0h1m5 0h1m-21 1h1m1 0h3m1 0h1m1 0h3m3 0h1m1 0h3m1 0h1m-21 1h1m1 0h3m1 0h1m1 0h1m1 0h3m1 0h1m1 0h3m1 0h1m-21 1h1m1 0h3m1 0h1m1 0h3m1 0h1m1 0h1m1 0h3m1 0h1m-21 1h1m5 0h1m1 0h2m4 0h1m5 0h1m-21 1h7m1 0h1m1 0h1m1 0h1m1 0h7m-12 1h4m-11 1h1m2 0h6m2 0h1m1 0h5m-20 1h1m2 0h2m2 0h1m1 0h2m3 0h1m2 0h1m2 0h1m-18 1h1m1 0h5m5 0h4m1 0h1m-21 1h5m2 0h1m1 0h2m1 0h1m1 0h1m2 0h1m1 0h2m-18 1h5m2 0h1m3 0h1m1 0h2m1 0h2m-13 1h5m3 0h1m2 0h2m-21 1h7m1 0h1m2 0h1m1 0h2m1 0h1m1 0h1m1 0h1m-21 1h1m5 0h1m1 0h6m1 0h1m1 0h1m1 0h2m-21 1h1m1 0h3m1 0h1m3 0h1m3 0h4m2 0h1m-21 1h1m1 0h3m1 0h1m2 0h1m2 0h2m2 0h2m-18 1h1m1 0h3m1 0h1m1 0h3m2 0h2m1 0h5m-21 1h1m5 0h1m2 0h9m-18 1h7m3 0h1m3 0h3m3 0h1"/></svg>
